<?xml version="1.0" encoding="UTF-8"?>
<svg width="31px" height="30px" viewBox="0 0 31 30" version="1.1" xmlns="http://www.w3.org/2000/svg" xmlns:xlink="http://www.w3.org/1999/xlink">
    <!-- Generator: Sketch 41.2 (35397) - http://www.bohemiancoding.com/sketch -->
    <title>Feather</title>
    <desc>Created with Sketch.</desc>
    <defs></defs>
    <g id="Symbols" stroke="none" stroke-width="1" fill="none" fill-rule="evenodd">
        <g id="Navbar--light-(website)" transform="translate(-24.000000, -14.000000)">
            <g id="Navbar--light">
                <g id="poet-logo" transform="translate(24.000000, 14.000000)">
                    <g id="Feather">
                        <polygon id="Shape" points="18.4922548 4.95209302 14.8114015 8.62953488 14.8114015 14.4753488 18.4922548 10.7832558"></polygon>
                        <polygon id="Shape" points="13.5502327 9.88953488 10.1186803 13.317907 10.1186803 19.1490698 13.5502327 15.7206977"></polygon>
                        <polygon id="Shape" points="8.87217617 14.5632558 5.71925406 17.7132558 5.71925406 23.5444186 8.87217617 20.3944186"></polygon>
                        <path d="M24.6954457,5.71395349 C24.7101105,5.72860465 24.7101105,5.74325581 24.7247752,5.75790698 L27.364431,3.12069767 C27.3497662,3.10604651 27.3351015,3.07674419 27.3057719,3.06209302 C26.3818924,2.13906977 25.1500531,1.62627907 23.8302252,1.62627907 C22.5250621,1.62627907 21.2932228,2.13906977 20.3546786,3.06209302 L19.7240941,3.69209302 L19.7240941,9.52325581 L23.5369302,5.71395349 C23.8742195,5.40627907 24.3874859,5.40627907 24.6954457,5.71395349 Z" id="Shape"></path>
                        <path d="M24.6954457,6.85674419 L20.9119392,10.6367442 L26.6751875,10.6367442 L27.3204367,9.99209302 C28.2443162,9.06906977 28.7575826,7.83837209 28.7575826,6.51976744 C28.7575826,5.23046512 28.258981,4.02906977 27.3790957,3.10604651 L24.73944,5.74325581 C25.0034056,6.0655814 25.0034056,6.54906977 24.6954457,6.85674419 Z" id="Shape" fill="#E1DED9"></path>
                        <polygon id="Shape" fill="#E1DED9" points="10.0453565 21.4932558 6.93642864 24.6139535 12.699677 24.6139535 15.8086048 21.4932558"></polygon>
                        <polygon id="Shape" fill="#E1DED9" points="11.2918606 20.247907 17.0551089 20.247907 20.4866613 16.8195349 14.723413 16.8195349"></polygon>
                        <polygon id="Shape" fill="#E1DED9" points="25.4286834 11.8967442 19.6654351 11.8967442 15.9845819 15.5595349 21.7478302 15.5595349"></polygon>
                        <path d="M28.4202933,1.96325581 C27.2031187,0.747209302 25.575331,0.073255814 23.8595548,0.073255814 C22.1291138,0.073255814 20.5159908,0.747209302 19.2988163,1.96325581 L4.3994262,16.8488372 C4.25277866,16.9953488 4.16479014,17.2151163 4.17945489,17.4348837 L4.17945489,25.0974419 L0.058659016,29.2144186 L2.33169589,29.2144186 L5.38196472,26.1669767 L13.0076368,26.1669767 C13.2276081,26.1669767 13.4329147,26.0790698 13.5795622,25.917907 L28.4056285,11.1055814 L28.4202933,11.0909302 C29.6228031,9.87488372 30.2973818,8.26325581 30.2973818,6.54906977 C30.2973818,4.8055814 29.6374678,3.19395349 28.4202933,1.96325581 Z M19.7534236,3.69209302 L20.3840081,3.06209302 C21.3078876,2.13906977 22.5397269,1.62627907 23.8595548,1.62627907 C25.1647179,1.62627907 26.3965572,2.13906977 27.3351015,3.06209302 C27.3497662,3.07674419 27.364431,3.10604651 27.3937605,3.12069767 C28.2883105,4.04372093 28.7722473,5.24511628 28.7722473,6.5344186 C28.7722473,7.83837209 28.258981,9.06906977 27.3351015,10.0067442 L26.6898523,10.6513953 L20.926604,10.6513953 L24.7101105,6.87139535 C25.0180703,6.56372093 25.0180703,6.09488372 24.73944,5.77255814 C24.7247752,5.75790698 24.7247752,5.74325581 24.7101105,5.72860465 C24.4021507,5.42093023 23.8888843,5.42093023 23.5809244,5.72860465 L19.7680884,9.53790698 L19.7680884,3.69209302 L19.7534236,3.69209302 Z M6.93642864,24.6139535 L10.0453565,21.507907 L15.8086048,21.507907 L12.699677,24.6139535 L6.93642864,24.6139535 Z M15.9845819,15.5595349 L19.6654351,11.882093 L25.4286834,11.882093 L21.7478302,15.5595349 L15.9845819,15.5595349 Z M20.4866613,16.8195349 L17.0551089,20.247907 L11.2918606,20.247907 L14.723413,16.8195349 L20.4866613,16.8195349 Z M14.8114015,8.62953488 L18.5069195,4.93744186 L18.5069195,10.7686047 L14.8114015,14.4753488 L14.8114015,8.62953488 Z M10.1186803,13.317907 L13.5502327,9.88953488 L13.5502327,15.7206977 L10.1186803,19.1490698 L10.1186803,13.317907 Z M5.71925406,17.7132558 L8.87217617,14.577907 L8.87217617,20.4090698 L5.71925406,23.5444186 L5.71925406,17.7132558 Z" id="Shape" fill="#393534"></path>
                    </g>
                </g>
            </g>
        </g>
    </g>
</svg>